<?xml version="1.0" encoding="UTF-8"?><svg id="Layer_1" xmlns="http://www.w3.org/2000/svg" viewBox="0 0 128 128"><defs><style>.cls-1{fill:#71b77f;}</style></defs><g id="security"><path class="cls-1" d="M96,32v12.01h-16v-12.01c0-8.84-7.16-16-16-16s-16,7.16-16,16v12.01h-16v-12.01C32,14.33,46.33,0,64,0s32,14.33,32,32Z"/><path class="cls-1" d="M104,56H24c-4.42,0-8,3.58-8,8v56c0,4.42,3.58,8,8,8h80c4.42,0,8-3.58,8-8v-56c0-4.42-3.58-8-8-8ZM72,98.86v10.15c0,4.41-3.58,8-8,8s-8-3.59-8-8v-10.15c-4.78-2.75-8-7.93-8-13.85,0-8.83,7.16-16,16-16s16,7.17,16,16c0,5.92-3.22,11.1-8,13.85Z"/></g></svg>