<?xml version="1.0" encoding="UTF-8"?><svg id="Layer_1" xmlns="http://www.w3.org/2000/svg" viewBox="0 0 128 128"><defs><style>.cls-1{fill:#71b77f;}</style></defs><g id="history"><path class="cls-1" d="M99.86,64c0,1.66-.67,3.16-1.76,4.24-1.08,1.09-2.58,1.76-4.24,1.76h-30c-3.31,0-6-2.69-6-6v-30c0-3.31,2.69-6,6-6,1.66,0,3.16.67,4.24,1.76,1.09,1.08,1.76,2.58,1.76,4.24v24h24c3.31,0,6,2.69,6,6Z"/><path class="cls-1" d="M127.73,67.02c-1.51,32.79-28.12,59.4-60.91,60.91C32.73,129.5,4.17,104.38.26,71.69c-.03-.28-.05-.55-.05-.82,0-3.75,3.08-6.87,6.93-6.87,3.5,0,6.44,2.62,6.86,6.1,3.01,24.83,24.16,44.07,49.8,44.07,28.98,0,52.22-24.56,50.03-54.01-1.86-25.03-22.42-45.03-47.49-46.27-12.89-.64-24.78,3.6-33.99,11.02l8.34,8.8c1.67,1.75.7,4.65-1.68,5.06L3.75,44.86c-2.13.37-3.94-1.55-3.46-3.66L8.23,6.32c.53-2.36,3.48-3.17,5.15-1.41l9.42,9.94C33.89,5.58,48.19,0,63.8,0,100.15,0,129.42,30.3,127.73,67.02Z"/></g></svg>