<?xml version="1.0" encoding="UTF-8"?><svg id="Layer_1" xmlns="http://www.w3.org/2000/svg" viewBox="0 0 128 128"><defs><style>.cls-1{fill:#1a1a1a;}</style></defs><g id="favorite"><path class="cls-1" d="M94.8,23.15c4.98,0,9.66,1.95,13.2,5.49,7.28,7.28,7.28,19.13,0,26.41l-44.01,44.01L19.99,55.04c-7.28-7.28-7.28-19.13,0-26.41,3.54-3.54,8.23-5.49,13.2-5.49,4.98,0,9.66,1.95,13.2,5.49l7.7,7.7,9.9,9.9,9.9-9.9,7.7-7.7c3.54-3.54,8.23-5.49,13.2-5.49h0M94.8,9.15c-8.36,0-16.71,3.2-23.1,9.59l-7.7,7.7-7.7-7.7c-6.39-6.39-14.75-9.59-23.1-9.59-8.36,0-16.71,3.2-23.1,9.59-12.76,12.76-12.76,33.44,0,46.2l53.91,53.91,53.91-53.91c12.76-12.76,12.76-33.44,0-46.2-6.39-6.39-14.75-9.59-23.1-9.59h0Z"/></g></svg>