<?xml version="1.0" encoding="UTF-8"?><svg id="Layer_1" xmlns="http://www.w3.org/2000/svg" viewBox="0 0 128 128"><defs><style>.cls-1{fill:#1a1a1a;}</style></defs><g id="follow"><path class="cls-1" d="M64,24C16,24,0,64,0,64c0,0,14.41,36.02,56.89,39.7,3.81.33,7.11-2.65,7.11-6.48h0c0-3.36-2.57-6.18-5.92-6.47-25.39-2.21-38.38-18.39-43.45-26.75,5.45-8.98,20.05-27,49.37-27,26.54,0,41.01,14.76,47.57,24.22,1.21,1.75,3.19,2.78,5.32,2.78h0c5.22,0,8.32-5.86,5.35-10.15-8.23-11.85-26.03-29.85-58.23-29.85Z"/><polygon class="cls-1" points="128 97.5 128 110.5 110.5 110.5 110.5 128 97.5 128 97.5 110.5 80 110.5 80 97.5 97.5 97.5 97.5 80 110.5 80 110.5 97.5 128 97.5"/><circle class="cls-1" cx="64" cy="64" r="16"/></g></svg>