<?xml version="1.0" encoding="UTF-8"?><svg id="Layer_1" xmlns="http://www.w3.org/2000/svg" viewBox="0 0 128 128"><defs><style>.cls-1{fill:#1a1a1a;}</style></defs><g id="notifications"><path class="cls-1" d="M82.3,107.37c0,10.1-8.19,18.29-18.29,18.29s-18.29-8.19-18.29-18.29h36.59Z"/><path class="cls-1" d="M108.08,93.59H19.91c-6.68,0-10.21-8.08-5.54-12.84l.1-.1c.68-.68,1.41-1.3,2.19-1.87,6.87-4.99,10.75-13.12,10.75-21.62v-5.3c0-16.95,11.52-31.2,27.16-35.36-.51-1.21-.79-2.54-.79-3.94,0-5.64,4.58-10.22,10.22-10.22s10.23,4.58,10.23,10.22c0,1.4-.28,2.73-.79,3.94,15.64,4.17,27.15,18.42,27.15,35.36v5.31c0,8.48,3.86,16.62,10.72,21.6.82.59,1.59,1.25,2.3,1.97,4.69,4.75,1.16,12.85-5.53,12.85Z"/></g></svg>