<?xml version="1.0" encoding="UTF-8"?><svg id="Layer_1" xmlns="http://www.w3.org/2000/svg" viewBox="0 0 128 128"><defs><style>.cls-1{fill:#71b77f;}</style></defs><g id="support"><path class="cls-1" d="M40.7,48.11c0-2.97.95-5.98,2.86-9.02,1.91-3.05,4.69-5.57,8.34-7.57,3.66-2,7.92-3,12.8-3,4.53,0,8.53.84,12,2.51,3.47,1.67,6.15,3.95,8.04,6.82,1.89,2.88,2.84,6,2.84,9.38,0,2.66-.54,4.99-1.62,6.98-1.08,2-2.36,3.73-3.84,5.18-1.48,1.45-4.15,3.9-7.99,7.34-1.06.97-1.91,1.82-2.55,2.55-.64.73-1.12,1.41-1.43,2.02-.31.61-.56,1.22-.73,1.83-.17.61-.43,1.68-.77,3.21-.59,3.25-2.45,4.88-5.58,4.88-1.62,0-2.99-.53-4.1-1.59-1.11-1.06-1.66-2.64-1.66-4.73,0-2.62.41-4.9,1.22-6.82.81-1.92,1.89-3.61,3.23-5.06,1.34-1.45,3.16-3.18,5.44-5.18,2-1.75,3.45-3.07,4.34-3.96s1.64-1.88,2.25-2.98c.61-1.09.91-2.28.91-3.56,0-2.5-.93-4.61-2.79-6.33-1.86-1.72-4.26-2.58-7.2-2.58-3.44,0-5.97.87-7.59,2.6-1.62,1.73-3,4.29-4.12,7.66-1.06,3.53-3.08,5.3-6.05,5.3-1.75,0-3.23-.62-4.43-1.85-1.2-1.23-1.8-2.57-1.8-4.01ZM63.58,99.48c-1.91,0-3.57-.62-4.99-1.85-1.42-1.23-2.13-2.96-2.13-5.18,0-1.97.69-3.62,2.06-4.97,1.38-1.34,3.06-2.02,5.06-2.02s3.62.67,4.97,2.02c1.34,1.34,2.02,3,2.02,4.97,0,2.19-.7,3.91-2.11,5.16-1.41,1.25-3.03,1.88-4.88,1.88Z"/><path class="cls-1" d="M64,0C28.65,0,0,28.65,0,64s28.65,64,64,64,64-28.65,64-64S99.35,0,64,0ZM64,114.17c-27.71,0-50.17-22.46-50.17-50.17S36.29,13.83,64,13.83s50.17,22.46,50.17,50.17-22.46,50.17-50.17,50.17Z"/></g></svg>