<?xml version="1.0" encoding="UTF-8"?><svg id="Layer_1" xmlns="http://www.w3.org/2000/svg" viewBox="0 0 128 128"><defs><style>.cls-1{fill:#1a1a1a;}</style></defs><g id="fork"><path class="cls-1" d="M57.27,70.64c20.96,0,31.27-12.16,35.42-22.8,11.98-1.34,21.3-11.5,21.3-23.84,0-13.25-10.75-24-24-24s-24,10.75-24,24c0,9.12,5.09,17.05,12.58,21.11-2.79,5.36-8.73,11.53-21.3,11.53-9.41,0-16.26,2.48-21.26,5.93v-15.61c9.84-3,17-12.14,17-22.96C53,10.75,42.26,0,29,0S5,10.75,5,24c0,10.82,7.16,19.96,17,22.96v34.08c-9.84,3-17,12.14-17,22.96,0,13.25,10.75,24,24,24s24-10.75,24-24c0-10.11-6.26-18.76-15.11-22.29.24-.55.5-1.11.81-1.67,3.42-6.32,9.49-9.39,18.57-9.39ZM89.99,14c5.51,0,10,4.49,10,10s-4.49,10-10,10-10-4.49-10-10,4.49-10,10-10ZM19,24c0-5.51,4.49-10,10-10s10,4.49,10,10-4.49,10-10,10-10-4.49-10-10ZM29,114c-5.51,0-10-4.49-10-10s4.49-10,10-10,10,4.49,10,10-4.49,10-10,10Z"/><polygon class="cls-1" points="123 97 106 97 106 80 92 80 92 97 75 97 75 111 92 111 92 128 106 128 106 111 123 111 123 97"/></g></svg>